<svg width="182" height="63" viewBox="0 0 182 63" fill="none" xmlns="http://www.w3.org/2000/svg">
<rect y="0.5" width="182" height="62" rx="8" fill="url(#paint0_linear_252_658)"/>
<path d="M42.7852 29.966C44.0692 30.578 44.7112 31.592 44.7112 33.008C44.7112 34.112 44.2912 35.012 43.4512 35.708C42.6232 36.392 41.5372 36.734 40.1932 36.734C37.8892 36.734 36.3652 35.762 35.6212 33.818L37.4032 32.792C37.7752 34.124 38.7052 34.79 40.1932 34.79C40.9732 34.79 41.5732 34.622 41.9932 34.286C42.4252 33.95 42.6412 33.488 42.6412 32.9C42.6412 32.324 42.4372 31.868 42.0292 31.532C41.6212 31.196 41.0572 31.028 40.3372 31.028H38.8072V29.156H39.9232C40.6312 29.156 41.1832 28.994 41.5792 28.67C41.9752 28.346 42.1732 27.914 42.1732 27.374C42.1732 26.822 41.9932 26.39 41.6332 26.078C41.2732 25.766 40.7572 25.61 40.0852 25.61C38.8372 25.61 37.9972 26.18 37.5652 27.32L35.8012 26.294C36.6172 24.542 38.0452 23.666 40.0852 23.666C41.3092 23.666 42.3112 24.002 43.0912 24.674C43.8592 25.334 44.2432 26.198 44.2432 27.266C44.2432 28.454 43.7572 29.354 42.7852 29.966ZM53.5218 28.778V27.5H55.4658V36.5H53.5218V35.204C52.7898 36.224 51.7398 36.734 50.3718 36.734C49.1358 36.734 48.0798 36.278 47.2038 35.366C46.3278 34.454 45.8898 33.332 45.8898 32C45.8898 30.668 46.3278 29.546 47.2038 28.634C48.0798 27.722 49.1358 27.266 50.3718 27.266C51.7398 27.266 52.7898 27.77 53.5218 28.778ZM48.6438 34.07C49.1838 34.61 49.8618 34.88 50.6778 34.88C51.4938 34.88 52.1718 34.61 52.7118 34.07C53.2518 33.518 53.5218 32.828 53.5218 32C53.5218 31.172 53.2518 30.488 52.7118 29.948C52.1718 29.396 51.4938 29.12 50.6778 29.12C49.8618 29.12 49.1838 29.396 48.6438 29.948C48.1038 30.488 47.8338 31.172 47.8338 32C47.8338 32.816 48.1038 33.506 48.6438 34.07ZM61.5837 31.91L65.6877 36.5H63.3657L59.6757 32.342V36.5H57.7317V27.5H59.6757V31.478L63.1677 27.5H65.5437L61.5837 31.91ZM73.4026 28.778V27.5H75.3466V36.5H73.4026V35.204C72.6706 36.224 71.6206 36.734 70.2526 36.734C69.0166 36.734 67.9606 36.278 67.0846 35.366C66.2086 34.454 65.7706 33.332 65.7706 32C65.7706 30.668 66.2086 29.546 67.0846 28.634C67.9606 27.722 69.0166 27.266 70.2526 27.266C71.6206 27.266 72.6706 27.77 73.4026 28.778ZM68.5246 34.07C69.0646 34.61 69.7426 34.88 70.5586 34.88C71.3746 34.88 72.0526 34.61 72.5926 34.07C73.1326 33.518 73.4026 32.828 73.4026 32C73.4026 31.172 73.1326 30.488 72.5926 29.948C72.0526 29.396 71.3746 29.12 70.5586 29.12C69.7426 29.12 69.0646 29.396 68.5246 29.948C67.9846 30.488 67.7146 31.172 67.7146 32C67.7146 32.816 67.9846 33.506 68.5246 34.07ZM82.6705 31.892C83.6305 32.324 84.1105 33.038 84.1105 34.034C84.1105 34.814 83.7925 35.462 83.1565 35.978C82.5205 36.482 81.6565 36.734 80.5645 36.734C78.7525 36.734 77.5285 36.014 76.8925 34.574L78.4765 33.638C78.8005 34.538 79.5025 34.988 80.5825 34.988C81.0865 34.988 81.4825 34.886 81.7705 34.682C82.0585 34.466 82.2025 34.184 82.2025 33.836C82.2025 33.524 82.0885 33.278 81.8605 33.098C81.6325 32.906 81.3145 32.81 80.9065 32.81H79.6285V31.1H80.5825C80.9785 31.1 81.2845 31.01 81.5005 30.83C81.7285 30.638 81.8425 30.38 81.8425 30.056C81.8425 29.744 81.7165 29.492 81.4645 29.3C81.2125 29.096 80.8765 28.994 80.4565 28.994C79.5565 28.994 78.9325 29.39 78.5845 30.182L77.0005 29.282C77.6605 27.938 78.8005 27.266 80.4205 27.266C81.4285 27.266 82.2265 27.524 82.8145 28.04C83.4145 28.544 83.7145 29.162 83.7145 29.894C83.7145 30.794 83.3665 31.46 82.6705 31.892ZM92.8265 28.778V27.5H94.7705V36.5H92.8265V35.204C92.0945 36.224 91.0445 36.734 89.6765 36.734C88.4405 36.734 87.3845 36.278 86.5085 35.366C85.6325 34.454 85.1945 33.332 85.1945 32C85.1945 30.668 85.6325 29.546 86.5085 28.634C87.3845 27.722 88.4405 27.266 89.6765 27.266C91.0445 27.266 92.0945 27.77 92.8265 28.778ZM87.9485 34.07C88.4885 34.61 89.1665 34.88 89.9825 34.88C90.7985 34.88 91.4765 34.61 92.0165 34.07C92.5565 33.518 92.8265 32.828 92.8265 32C92.8265 31.172 92.5565 30.488 92.0165 29.948C91.4765 29.396 90.7985 29.12 89.9825 29.12C89.1665 29.12 88.4885 29.396 87.9485 29.948C87.4085 30.488 87.1385 31.172 87.1385 32C87.1385 32.816 87.4085 33.506 87.9485 34.07ZM96.0823 27.5H103.912V29.372H100.978V36.5H99.0343V29.372H96.0823V27.5ZM107.172 30.56H109.152C110.124 30.56 110.91 30.836 111.51 31.388C112.122 31.928 112.428 32.642 112.428 33.53C112.428 34.406 112.122 35.12 111.51 35.672C110.91 36.224 110.124 36.5 109.152 36.5H105.228V27.5H107.172V30.56ZM107.172 34.754H109.17C109.554 34.754 109.872 34.64 110.124 34.412C110.388 34.184 110.52 33.89 110.52 33.53C110.52 33.17 110.394 32.876 110.142 32.648C109.89 32.42 109.566 32.306 109.17 32.306H107.172V34.754Z" fill="#191411"/>
<path d="M140 37.5C140.53 37.5 141.039 37.7107 141.414 38.0858C141.789 38.4609 142 38.9696 142 39.5C142 40.0304 141.789 40.5391 141.414 40.9142C141.039 41.2893 140.53 41.5 140 41.5C139.47 41.5 138.961 41.2893 138.586 40.9142C138.211 40.5391 138 40.0304 138 39.5C138 38.39 138.89 37.5 140 37.5ZM124 21.5H127.27L128.21 23.5H143C143.265 23.5 143.52 23.6054 143.707 23.7929C143.895 23.9804 144 24.2348 144 24.5C144 24.67 143.95 24.84 143.88 25L140.3 31.47C139.96 32.08 139.3 32.5 138.55 32.5H131.1L130.2 34.13L130.17 34.25C130.17 34.3163 130.196 34.3799 130.243 34.4268C130.29 34.4737 130.354 34.5 130.42 34.5H142V36.5H130C129.47 36.5 128.961 36.2893 128.586 35.9142C128.211 35.5391 128 35.0304 128 34.5C128 34.15 128.09 33.82 128.24 33.54L129.6 31.09L126 23.5H124V21.5ZM130 37.5C130.53 37.5 131.039 37.7107 131.414 38.0858C131.789 38.4609 132 38.9696 132 39.5C132 40.0304 131.789 40.5391 131.414 40.9142C131.039 41.2893 130.53 41.5 130 41.5C129.47 41.5 128.961 41.2893 128.586 40.9142C128.211 40.5391 128 40.0304 128 39.5C128 38.39 128.89 37.5 130 37.5ZM139 30.5L141.78 25.5H129.14L131.5 30.5H139Z" fill="#191411"/>
<defs>
<linearGradient id="paint0_linear_252_658" x1="0" y1="0.5" x2="184.533" y2="53.7161" gradientUnits="userSpaceOnUse">
<stop stop-color="#DA8023"/>
<stop offset="1" stop-color="#E2B438"/>
</linearGradient>
</defs>
</svg>
